<?xml version="1.0" encoding="UTF-8" standalone="no"?><!DOCTYPE svg PUBLIC "-//W3C//DTD SVG 1.1//EN" "http://www.w3.org/Graphics/SVG/1.1/DTD/svg11.dtd"><svg width="100%" height="100%" viewBox="0 0 128 24" version="1.1" xmlns="http://www.w3.org/2000/svg" xmlns:xlink="http://www.w3.org/1999/xlink" xml:space="preserve" xmlns:serif="http://www.serif.com/" style="fill-rule:evenodd;clip-rule:evenodd;stroke-linecap:round;stroke-linejoin:round;stroke-miterlimit:1.5;"><rect id="Bottom" x="0" y="0" width="128" height="24" style="fill:none;"/><clipPath id="_clip1"><rect x="0" y="0" width="128" height="24"/></clipPath><g clip-path="url(#_clip1)"><path d="M120,0l-112,0l-8,16l16,-8l32,16l16,-8l16,-8l32,16l16,-8l-8,-16Z" style="fill:#06f;"/><clipPath id="_clip2"><path d="M120,0l-112,0l-8,16l16,-8l32,16l16,-8l16,-8l32,16l16,-8l-8,-16Z"/></clipPath><g clip-path="url(#_clip2)"><g><circle cx="159.556" cy="-6.659" r="41.341" style="fill:#005eff;stroke:#08f;stroke-width:0.57px;"/><circle cx="128" cy="16" r="22.604" style="fill:#07f;stroke:#08f;stroke-width:0.57px;"/></g><g><circle cx="31.556" cy="-6.659" r="41.341" style="fill:#005eff;stroke:#08f;stroke-width:0.57px;"/><circle cx="0" cy="16" r="22.604" style="fill:#07f;stroke:#08f;stroke-width:0.57px;"/></g></g></g></svg>