<?xml version="1.0" encoding="UTF-8" standalone="no"?><!DOCTYPE svg PUBLIC "-//W3C//DTD SVG 1.1//EN" "http://www.w3.org/Graphics/SVG/1.1/DTD/svg11.dtd"><svg width="100%" height="100%" viewBox="0 0 128 128" version="1.1" xmlns="http://www.w3.org/2000/svg" xmlns:xlink="http://www.w3.org/1999/xlink" xml:space="preserve" xmlns:serif="http://www.serif.com/" style="fill-rule:evenodd;clip-rule:evenodd;stroke-linecap:round;stroke-linejoin:round;stroke-miterlimit:1.5;"><rect id="Main" x="0" y="0" width="128" height="128" style="fill:none;"/><clipPath id="_clip1"><rect x="0" y="0" width="128" height="128"/></clipPath><g clip-path="url(#_clip1)"><path d="M128,0l-16,8l-16,-8l-16,8l-16,-8l-16,8l-16,-8l-16,8l-16,-8l8,16l-8,16l8,16l-8,16l8,16l-8,16l8,16l-8,16l16,-8l16,8l16,-8l16,8l16,-8l16,8l16,-8l16,8l-8,-16l8,-16l-8,-16l8,-16l-8,-16l8,-16l-8,-16l8,-16Z" style="fill:#12f000;"/><clipPath id="_clip2"><path d="M128,0l-16,8l-16,-8l-16,8l-16,-8l-16,8l-16,-8l-16,8l-16,-8l8,16l-8,16l8,16l-8,16l8,16l-8,16l8,16l-8,16l16,-8l16,8l16,-8l16,8l16,-8l16,8l16,-8l16,8l-8,-16l8,-16l-8,-16l8,-16l-8,-16l8,-16l-8,-16l8,-16Z"/></clipPath><g clip-path="url(#_clip2)"><g><circle cx="159.556" cy="105.341" r="41.341" style="fill:#07ff00;stroke:#32ff00;stroke-width:0.57px;"/><circle cx="128" cy="128" r="22.604" style="fill:#21ff00;stroke:#32ff00;stroke-width:0.57px;"/></g><g><circle cx="31.556" cy="105.341" r="41.341" style="fill:#08ff00;stroke:#3f0;stroke-width:0.57px;"/><circle cx="0" cy="128" r="22.604" style="fill:#2f0;stroke:#31ff00;stroke-width:0.57px;"/></g><g><circle cx="159.556" cy="-22.659" r="41.341" style="fill:#07ff00;stroke:#32ff00;stroke-width:0.57px;"/><circle cx="128" cy="0" r="22.604" style="fill:#24ff00;stroke:#34ff00;stroke-width:0.57px;"/></g><g><circle cx="31.556" cy="-22.659" r="41.341" style="fill:#07ff00;stroke:#32ff00;stroke-width:0.57px;"/><circle cx="0" cy="0" r="22.604" style="fill:#20ff00;stroke:#34ff00;stroke-width:0.57px;"/></g></g></g></svg>